HIERARCHY
ROOT joint_Root
{
	OFFSET 0.0 0.0 0.0
	CHANNELS 6 Xposition Yposition Zposition Zrotation Xrotation Yrotation 
	JOINT Hips
	{
		OFFSET -17.1583 93.1646 452.98
		CHANNELS 6 Xposition Yposition Zposition Zrotation Xrotation Yrotation 
		JOINT Spine
		{
			OFFSET 15.7357 0.0 0.0
			CHANNELS 6 Xposition Yposition Zposition Zrotation Xrotation Yrotation 
			JOINT Chest
			{
				OFFSET 8.98455 -0.406207 0.0
				CHANNELS 6 Xposition Yposition Zposition Zrotation Xrotation Yrotation 
				JOINT Neck
				{
					OFFSET 16.3773 0.0 0.0
					CHANNELS 6 Xposition Yposition Zposition Zrotation Xrotation Yrotation 
					JOINT Head
					{
						OFFSET 6.45672 0.0 0.0
						CHANNELS 6 Xposition Yposition Zposition Zrotation Xrotation Yrotation 
						End Site
						{
							OFFSET 0.0 0.0 0.0
						}
					}
				}
				JOINT Shoulder_L
				{
					OFFSET 12.9942 -0.242716 4.98039
					CHANNELS 6 Xposition Yposition Zposition Zrotation Xrotation Yrotation 
					JOINT UpperArm_L
					{
						OFFSET 5.34809 0.0 0.0
						CHANNELS 6 Xposition Yposition Zposition Zrotation Xrotation Yrotation 
						JOINT LowerArm_L
						{
							OFFSET 24.3286 1.87007e-05 0.0
							CHANNELS 6 Xposition Yposition Zposition Zrotation Xrotation Yrotation 
							JOINT Hand_L
							{
								OFFSET 22.2916 0.0 0.0
								CHANNELS 6 Xposition Yposition Zposition Zrotation Xrotation Yrotation 
								End Site
								{
									OFFSET 0.0 0.0 0.0
								}
							}
						}
					}
				}
				JOINT Shoulder_R
				{
					OFFSET 12.9945 -0.242716 -4.98039
					CHANNELS 6 Xposition Yposition Zposition Zrotation Xrotation Yrotation 
					JOINT UpperArm_R
					{
						OFFSET -5.34813 0.0 0.0
						CHANNELS 6 Xposition Yposition Zposition Zrotation Xrotation Yrotation 
						JOINT LowerArm_R
						{
							OFFSET -24.3289 0.000322201 0.0
							CHANNELS 6 Xposition Yposition Zposition Zrotation Xrotation Yrotation 
							JOINT Hand_R
							{
								OFFSET -22.2915 -0.000108084 0.0
								CHANNELS 6 Xposition Yposition Zposition Zrotation Xrotation Yrotation 
								End Site
								{
									OFFSET 0.0 0.0 0.0
								}
							}
						}
					}
				}
			}
		}
		JOINT UpperLeg_L
		{
			OFFSET -2.19248 -6.46944 0.0
			CHANNELS 6 Xposition Yposition Zposition Zrotation Xrotation Yrotation 
			JOINT LowerLeg_L
			{
				OFFSET 39.0811 0.0 -1.23785e-05
				CHANNELS 6 Xposition Yposition Zposition Zrotation Xrotation Yrotation 
				JOINT Foot_L
				{
					OFFSET 40.9854 0.0 -1.26872e-05
					CHANNELS 6 Xposition Yposition Zposition Zrotation Xrotation Yrotation 
					JOINT Toes_L
					{
						OFFSET 11.7543 0.0 0.0
						CHANNELS 6 Xposition Yposition Zposition Zrotation Xrotation Yrotation 
						End Site
						{
							OFFSET 0.0 0.0 0.0
						}
					}
				}
			}
		}
		JOINT UpperLeg_R
		{
			OFFSET -2.19251 6.46944 0.0
			CHANNELS 6 Xposition Yposition Zposition Zrotation Xrotation Yrotation 
			JOINT LowerLeg_R
			{
				OFFSET -39.0811 -0.00228153 -0.0401928
				CHANNELS 6 Xposition Yposition Zposition Zrotation Xrotation Yrotation 
				JOINT Foot_R
				{
					OFFSET -40.9854 0.0 0.0
					CHANNELS 6 Xposition Yposition Zposition Zrotation Xrotation Yrotation 
					JOINT Toes_R
					{
						OFFSET -11.7543 0.0 0.0
						CHANNELS 6 Xposition Yposition Zposition Zrotation Xrotation Yrotation 
						End Site
						{
							OFFSET 0.0 0.0 0.0
						}
					}
				}
			}
		}
	}
}
MOTION
Frames:	7
Frame Time:	0.0333333
0.000000 0.000000 0.000000 0.000000 0.000000 -0.000000 -3.593490 93.220000 -3.194340 87.524000 3.709910 4.286330 15.735700 0.000005 -0.000001 84.738100 84.696700 -83.024500 8.984550 -0.406207 -0.000000 2.814250 -1.045800 3.449560 16.377300 -0.000001 -0.000001 4.703090 0.910785 -2.988050 6.456720 -0.000001 -0.000000 -10.749000 -0.230379 -2.961390 12.994200 -0.242716 4.980390 -92.852800 8.757620 -71.877300 5.348090 -0.000007 -0.000001 -72.223300 21.315900 -11.641900 24.328600 0.000019 0.000005 3.056930 33.529000 -5.528580 22.291600 -0.000001 0.000005 -13.414500 5.135700 4.223830 12.994500 -0.242716 -4.980390 88.032400 5.893900 -71.501800 -5.348130 -0.000001 -0.000004 -64.778500 32.662800 -12.935300 -24.328900 0.000322 -0.000009 -0.427854 -1.447270 -16.428800 -22.291500 -0.000108 -0.000004 -8.548140 5.206880 2.538040 -2.192480 -6.469440 -0.000000 -170.619000 -11.202700 -1.162280 39.081100 -0.000007 -0.000012 -0.026085 0.086879 16.711700 40.985400 -0.000006 -0.000013 -2.059890 17.692600 -66.393200 11.754300 -0.000000 0.000003 -0.001387 0.188387 -8.934470 -2.192510 6.469440 -0.000001 178.684000 11.237700 -178.193000 -39.081100 -0.002282 -0.040193 0.031818 -0.116419 13.749100 -40.985400 0.000008 0.000006 -2.688230 8.729970 -67.028100 -11.754300 -0.000006 -0.000006 -0.011019 0.278770 -5.245540
0.000000 0.000000 0.000000 0.000000 0.000000 -0.000000 -3.545270 93.248100 -3.124710 87.571700 3.731150 3.739410 15.735700 0.000005 -0.000001 84.794100 84.861800 -83.151300 8.984550 -0.406207 -0.000000 2.484900 -1.007330 3.304330 16.377300 -0.000001 -0.000001 3.853570 0.859521 -2.656020 6.456720 -0.000001 -0.000000 -11.834100 -0.149077 -2.710260 12.994200 -0.242716 4.980390 -92.886000 8.726920 -71.620100 5.348090 -0.000007 -0.000001 -68.907000 19.735400 -16.501200 24.328600 0.000019 0.000005 1.801640 45.239600 -2.540620 22.291600 -0.000001 0.000005 -23.666200 5.291530 0.161567 12.994500 -0.242716 -4.980390 87.964700 5.969390 -71.133800 -5.348130 -0.000001 -0.000004 -61.567900 31.018400 -15.719000 -24.328900 0.000322 -0.000009 -0.894616 -2.645220 -18.667100 -22.291500 -0.000108 -0.000004 -13.488800 5.209010 2.503260 -2.192480 -6.469440 -0.000000 -170.744000 -11.717100 -1.525270 39.081100 -0.000007 -0.000012 -0.025737 0.087196 16.444400 40.985400 -0.000006 -0.000013 -2.022270 18.063000 -66.374100 11.754300 -0.000000 0.000003 -0.001500 0.189898 -8.873030 -2.192510 6.469440 -0.000001 178.589000 11.826500 -178.538000 -39.081100 -0.002282 -0.040193 0.029543 -0.109429 13.469600 -40.985400 0.000008 0.000006 -2.837070 9.356140 -66.914300 -11.754300 -0.000006 -0.000006 -0.011362 0.281213 -5.145560
0.000000 0.000000 0.000000 0.000000 0.000000 -0.000000 -3.544970 93.299700 -3.013580 87.609400 3.969390 2.844980 15.735700 0.000005 -0.000001 83.665400 85.374400 -82.109500 8.984550 -0.406207 -0.000000 1.445790 -1.105980 3.123040 16.377300 -0.000001 -0.000001 3.158740 0.581083 -2.100650 6.456720 -0.000001 -0.000000 -12.640200 -0.268053 -2.722160 12.994200 -0.242716 4.980390 -92.681200 7.976220 -71.351100 5.348090 -0.000007 -0.000001 -65.339900 14.475000 -22.083600 24.328600 0.000019 0.000005 0.543313 52.321700 -0.686750 22.291600 -0.000001 0.000005 -32.862200 5.351390 -1.398390 12.994500 -0.242716 -4.980390 88.128100 5.268130 -70.405500 -5.348130 -0.000001 -0.000004 -58.094300 27.421200 -19.620100 -24.328900 0.000322 -0.000009 -1.026130 -2.606360 -21.479800 -22.291500 -0.000108 -0.000004 -19.734500 5.169990 3.476640 -2.192480 -6.469440 -0.000000 -170.857000 -12.630500 -2.097460 39.081100 -0.000007 -0.000012 -0.027941 0.098147 15.890200 40.985400 -0.000006 -0.000013 -1.990300 19.042100 -66.232500 11.754300 -0.000000 0.000003 -0.001367 0.188113 -8.945620 -2.192510 6.469440 -0.000001 178.515000 13.342900 -179.044000 -39.081100 -0.002282 -0.040193 0.024041 -0.090523 12.884700 -40.985400 0.000008 0.000006 -3.031740 10.572600 -66.526700 -11.754300 -0.000006 -0.000006 -0.011139 0.279627 -5.210490
0.000000 0.000000 0.000000 0.000000 0.000000 -0.000000 -3.546960 93.420700 -2.902420 87.567900 4.248070 1.573870 15.735700 0.000005 -0.000001 79.874600 86.144000 -78.293400 8.984550 -0.406207 -0.000000 -0.151749 -1.464690 3.158650 16.377300 -0.000001 -0.000001 2.079590 0.286397 -1.892350 6.456720 -0.000001 -0.000000 -12.854100 -0.227580 -3.328040 12.994200 -0.242716 4.980390 -92.335900 6.929660 -71.319500 5.348090 -0.000007 -0.000001 -61.458300 6.531580 -27.936100 24.328600 0.000019 0.000005 0.047612 49.600500 -0.062319 22.291600 -0.000001 0.000005 -32.909100 5.226950 1.985270 12.994500 -0.242716 -4.980390 88.469300 4.120890 -69.600800 -5.348130 -0.000001 -0.000004 -54.281400 21.512700 -26.139000 -24.328900 0.000322 -0.000009 -1.620370 -4.159250 -21.304300 -22.291500 -0.000108 -0.000004 -22.917800 5.110600 4.871030 -2.192480 -6.469440 -0.000000 -171.022000 -13.488800 -2.780800 39.081100 -0.000007 -0.000012 -0.031830 0.120702 14.773000 40.985400 -0.000006 -0.000013 -2.093720 19.852900 -66.058600 11.754300 -0.000000 0.000003 -0.002043 0.196879 -8.589160 -2.192510 6.469440 -0.000001 178.570000 15.024100 -179.476000 -39.081100 -0.002282 -0.040193 0.009628 -0.031414 11.324700 -40.985400 0.000008 0.000006 -3.976220 11.961600 -65.301700 -11.754300 -0.000006 -0.000006 -0.011754 0.283977 -5.032360
0.000000 0.000000 0.000000 0.000000 0.000000 -0.000000 -3.511470 93.510600 -2.697700 87.531200 4.339120 0.314068 15.735700 0.000005 -0.000001 72.994800 86.928900 -71.352100 8.984550 -0.406207 -0.000000 -1.862860 -1.933870 3.253550 16.377300 -0.000001 -0.000001 0.771541 0.162243 -2.014250 6.456720 -0.000001 -0.000000 -12.834200 -0.084449 -3.931250 12.994200 -0.242716 4.980390 -92.020800 6.019040 -71.402500 5.348090 -0.000007 -0.000001 -56.526300 -1.840570 -34.189600 24.328600 0.000019 0.000005 0.416824 43.652200 -0.604478 22.291600 -0.000001 0.000005 -24.887300 5.144600 4.054700 12.994500 -0.242716 -4.980390 88.886700 2.942090 -69.263300 -5.348130 -0.000001 -0.000004 -52.632300 11.529300 -34.466200 -24.328900 0.000322 -0.000009 -1.792830 -5.997590 -16.670100 -22.291500 -0.000108 -0.000004 -19.725800 5.084570 5.467190 -2.192480 -6.469440 -0.000000 -171.232000 -14.234500 -3.433670 39.081100 -0.000007 -0.000012 -0.033287 0.135837 13.769000 40.985400 -0.000006 -0.000013 -2.184230 20.438600 -65.797900 11.754300 -0.000000 0.000003 -0.001893 0.194997 -8.665700 -2.192510 6.469440 -0.000001 178.744000 15.573800 -179.921000 -39.081100 -0.002282 -0.040193 0.001013 0.013387 9.856790 -40.985400 0.000008 0.000006 -5.047460 12.498100 -64.217000 -11.754300 -0.000006 -0.000006 -0.011764 0.284043 -5.029680
0.000000 0.000000 0.000000 0.000000 0.000000 -0.000000 -3.437040 93.591800 -2.427010 87.544200 4.156170 -0.791569 15.735700 0.000005 -0.000001 65.061300 87.608600 -63.435100 8.984550 -0.406207 -0.000000 -3.397370 -2.173990 3.189040 16.377300 -0.000001 -0.000001 -1.109440 0.369745 -2.200800 6.456720 -0.000001 -0.000000 -12.663800 -0.126462 -3.741080 12.994200 -0.242716 4.980390 -91.632700 4.744000 -70.982200 5.348090 -0.000007 -0.000001 -51.532700 -9.856950 -40.945400 24.328600 0.000019 0.000005 1.431830 38.733000 -2.289380 22.291600 -0.000001 0.000005 -12.988700 5.129590 4.374500 12.994500 -0.242716 -4.980390 89.260500 1.975820 -69.477300 -5.348130 -0.000001 -0.000004 -53.144000 -0.460588 -43.146000 -24.328900 0.000322 -0.000009 -1.553930 -7.532840 -11.691900 -22.291500 -0.000108 -0.000004 -10.811400 5.119390 4.703220 -2.192480 -6.469440 -0.000000 -171.523000 -14.300000 -3.768990 39.081100 -0.000007 -0.000012 -0.027294 0.121449 12.665800 40.985400 -0.000006 -0.000013 -2.348870 20.149400 -65.603000 11.754300 -0.000000 0.000003 -0.002459 0.201947 -8.383050 -2.192510 6.469440 -0.000001 178.848000 15.089300 179.845000 -39.081100 -0.002282 -0.040193 -0.000911 0.029155 8.298490 -40.985400 0.000008 0.000006 -6.407820 12.236600 -63.120800 -11.754300 -0.000006 -0.000006 -0.012041 0.285968 -4.950830
0.000000 0.000000 0.000000 0.000000 0.000000 -0.000000 -3.305940 93.691900 -2.071400 87.577500 3.947400 -1.973820 15.735700 0.000005 -0.000001 57.005200 88.270000 -55.435700 8.984550 -0.406207 -0.000000 -4.835680 -2.054790 3.054870 16.377300 -0.000001 -0.000001 -3.245270 0.553226 -2.207560 6.456720 -0.000001 -0.000000 -12.821200 -0.031904 -3.522810 12.994200 -0.242716 4.980390 -91.125000 3.174560 -70.475100 5.348090 -0.000007 -0.000001 -48.258200 -18.679000 -48.486300 24.328600 0.000019 0.000005 1.642600 33.441600 -2.978850 22.291600 -0.000001 0.000005 -1.097590 5.020520 6.783130 12.994500 -0.242716 -4.980390 89.789900 0.559443 -69.408100 -5.348130 -0.000001 -0.000004 -55.394800 -12.188700 -52.347600 -24.328900 0.000322 -0.000009 -1.246280 -9.247010 -7.707500 -22.291500 -0.000108 -0.000004 -1.855200 5.205950 2.625110 -2.192480 -6.469440 -0.000000 -171.766000 -14.384700 -4.049190 39.081100 -0.000007 -0.000012 -0.029804 0.149024 11.309300 40.985400 -0.000006 -0.000013 -3.539790 19.999900 -64.634700 11.754300 -0.000000 0.000003 -0.002656 0.204274 -8.288360 -2.192510 6.469440 -0.000001 178.826000 14.470200 -179.834000 -39.081100 -0.002282 -0.040193 0.002466 0.008996 5.586440 -40.985400 0.000008 0.000006 -8.513310 11.907700 -61.233800 -11.754300 -0.000006 -0.000006 -0.011900 0.284991 -4.990860
